<svg height="500" preserveAspectRatio="xMidYMid meet" version="1.0" viewBox="0 0 375 374.999991"
    width="500" xmlns="http://www.w3.org/2000/svg" zoomAndPan="magnify">
    <defs>
        <clipPath id="a355de6edf">
            <path clip-rule="nonzero" d="M 8 97 L 342 97 L 342 322 L 8 322 Z M 8 97 " />
        </clipPath>
        <clipPath id="a90aab6144">
            <path clip-rule="nonzero"
                d="M 64.367188 27.640625 L 391.117188 220.65625 L 322.074219 337.535156 L -4.675781 144.523438 Z M 64.367188 27.640625 " />
        </clipPath>
        <clipPath id="bd40ed1ccf">
            <path clip-rule="nonzero"
                d="M 64.367188 27.640625 L 391.117188 220.65625 L 322.074219 337.535156 L -4.675781 144.523438 Z M 64.367188 27.640625 " />
        </clipPath>
    </defs>
    <g clip-path="url(#a355de6edf)">
        <g clip-path="url(#a90aab6144)">
            <g clip-path="url(#bd40ed1ccf)">
                <path
                    d="M 9.199219 133.332031 C 6.21875 127.011719 9.640625 123.636719 13.238281 120.613281 C 23.148438 112.195312 34.1875 105.875 47.039062 102.957031 C 87.988281 93.695312 128.648438 95.996094 168.65625 107.585938 C 209.675781 119.460938 243.632812 142.234375 268.976562 176.941406 C 280.894531 193.273438 291.933594 210.269531 303.769531 227.566406 C 304.230469 225.433594 305.027344 222.84375 305.367188 220.152344 C 307.761719 201.90625 310.332031 198.792969 328.242188 193.851562 C 332.242188 192.734375 336.429688 192.355469 341.640625 191.429688 C 341.726562 195.515625 341.871094 198.457031 341.839844 201.394531 C 341.5625 233.007812 340.722656 264.636719 341.347656 296.261719 C 341.480469 303.929688 338.613281 308.078125 333.523438 311.511719 C 323.261719 318.398438 311.136719 320.496094 299.242188 321.4375 C 295.082031 321.765625 289.988281 317.851562 286.1875 314.804688 C 258.421875 292.382812 228.851562 272.722656 196.796875 257.09375 C 186.796875 252.230469 176.074219 248.890625 164.769531 244.476562 C 165.433594 240.761719 169.3125 238.492188 172.808594 236.695312 C 189.234375 228.261719 206.164062 223.160156 224.480469 230.777344 C 233.128906 234.390625 241.796875 237.910156 250.402344 241.597656 C 254.234375 243.238281 257.90625 245.265625 262.511719 247.535156 C 256.675781 220.140625 194.984375 160.761719 155.828125 143.96875 C 108.210938 123.53125 59.082031 120.960938 9.199219 133.332031 Z M 9.199219 133.332031 "
                    fill="#38b6ff" fill-opacity="1" fill-rule="nonzero" />
            </g>
        </g>
    </g>
</svg>